<svg viewBox="0 0 48 48" xmlns="http://www.w3.org/2000/svg" fill="#d1d5db" stroke="#d1d5db" stroke-width="3.12"><g id="SVGRepo_bgCarrier" stroke-width="0"></g><g id="SVGRepo_tracerCarrier" stroke-linecap="round" stroke-linejoin="round" stroke="#CCCCCC" stroke-width="3.5519999999999996"> <defs> <style>.c{fill:none;stroke:#d1d5db;stroke-linecap:round;stroke-linejoin:round;}</style> </defs> <g id="a"> <g> <line class="c" x1="21.25" y1="20.925" x2="24.75" y2="19"></line> <line class="c" x1="24.75" y1="19" x2="24.75" y2="33"></line> </g> </g> <g id="b"> <path class="c" d="m8.0988,7.8588c-1.0601,0-1.9194.8593-1.9194,1.9194v31.8025c0,1.06.8593,1.9193,1.9193,1.9193h31.8025c1.06,0,1.9193-.8592,1.9194-1.9192h0V9.7782c0-1.0601-.8593-1.9194-1.9194-1.9194H8.0988Z"></path> <line class="c" x1="12.8166" y1="10.258" x2="12.8166" y2="4.5"></line> <line class="c" x1="35.1834" y1="10.258" x2="35.1834" y2="4.5"></line> </g> </g><g id="SVGRepo_iconCarrier"> <defs> <style>.c{fill:none;stroke:#d1d5db;stroke-linecap:round;stroke-linejoin:round;}</style> </defs> <g id="a"> <g> <line class="c" x1="21.25" y1="20.925" x2="24.75" y2="19"></line> <line class="c" x1="24.75" y1="19" x2="24.75" y2="33"></line> </g> </g> <g id="b"> <path class="c" d="m8.0988,7.8588c-1.0601,0-1.9194.8593-1.9194,1.9194v31.8025c0,1.06.8593,1.9193,1.9193,1.9193h31.8025c1.06,0,1.9193-.8592,1.9194-1.9192h0V9.7782c0-1.0601-.8593-1.9194-1.9194-1.9194H8.0988Z"></path> <line class="c" x1="12.8166" y1="10.258" x2="12.8166" y2="4.5"></line> <line class="c" x1="35.1834" y1="10.258" x2="35.1834" y2="4.5"></line> </g> </g></svg>